<svg width="21" height="19" viewBox="0 0 21 19" fill="none" xmlns="http://www.w3.org/2000/svg">
<path d="M3 2.25C3 1.65326 3.23705 1.08097 3.65901 0.65901C4.08097 0.237053 4.65326 0 5.25 0H14.75C15.3467 0 15.919 0.237053 16.341 0.65901C16.7629 1.08097 17 1.65326 17 2.25V11H21V14.75C21 15.1768 20.9159 15.5994 20.7526 15.9937C20.5893 16.388 20.3499 16.7463 20.0481 17.0481C19.7463 17.3499 19.388 17.5893 18.9937 17.7526C18.5994 17.9159 18.1768 18 17.75 18H11.95C11.9833 17.838 12 17.6713 12 17.5V13.5C12 12.837 11.7366 12.2011 11.2678 11.7322C10.7989 11.2634 10.163 11 9.5 11H3V2.25ZM17 16.5H17.75C18.2141 16.5 18.6592 16.3156 18.9874 15.9874C19.3156 15.6592 19.5 15.2141 19.5 14.75V12.5H17V16.5ZM6.5 4.75C6.5 5.164 6.836 5.5 7.25 5.5H12.75C12.9489 5.5 13.1397 5.42098 13.2803 5.28033C13.421 5.13968 13.5 4.94891 13.5 4.75C13.5 4.55109 13.421 4.36032 13.2803 4.21967C13.1397 4.07902 12.9489 4 12.75 4H7.25C7.05109 4 6.86032 4.07902 6.71967 4.21967C6.57902 4.36032 6.5 4.55109 6.5 4.75ZM7.25 8C7.05109 8 6.86032 8.07902 6.71967 8.21967C6.57902 8.36032 6.5 8.55109 6.5 8.75C6.5 8.94891 6.57902 9.13968 6.71967 9.28033C6.86032 9.42098 7.05109 9.5 7.25 9.5H12.75C12.9489 9.5 13.1397 9.42098 13.2803 9.28033C13.421 9.13968 13.5 8.94891 13.5 8.75C13.5 8.55109 13.421 8.36032 13.2803 8.21967C13.1397 8.07902 12.9489 8 12.75 8H7.25ZM1.5 12C1.10218 12 0.720644 12.158 0.43934 12.4393C0.158035 12.7206 0 13.1022 0 13.5V17.5C0 17.8978 0.158035 18.2794 0.43934 18.5607C0.720644 18.842 1.10218 19 1.5 19H9.5C9.89782 19 10.2794 18.842 10.5607 18.5607C10.842 18.2794 11 17.8978 11 17.5V13.5C11 13.1022 10.842 12.7206 10.5607 12.4393C10.2794 12.158 9.89782 12 9.5 12H1.5ZM9 13C9 13.2652 9.10536 13.5196 9.29289 13.7071C9.48043 13.8946 9.73478 14 10 14V15C9.46957 15 8.96086 14.7893 8.58579 14.4142C8.21071 14.0391 8 13.5304 8 13H9ZM8 18C8 17.4696 8.21071 16.9609 8.58579 16.5858C8.96086 16.2107 9.46957 16 10 16V17C9.73478 17 9.48043 17.1054 9.29289 17.2929C9.10536 17.4804 9 17.7348 9 18H8ZM1 14C1.26522 14 1.51957 13.8946 1.70711 13.7071C1.89464 13.5196 2 13.2652 2 13H3C3 13.5304 2.78929 14.0391 2.41421 14.4142C2.03914 14.7893 1.53043 15 1 15V14ZM1 16C1.53043 16 2.03914 16.2107 2.41421 16.5858C2.78929 16.9609 3 17.4696 3 18H2C2 17.7348 1.89464 17.4804 1.70711 17.2929C1.51957 17.1054 1.26522 17 1 17V16ZM5.5 13.75C5.96413 13.75 6.40925 13.9344 6.73744 14.2626C7.06563 14.5908 7.25 15.0359 7.25 15.5C7.25 15.9641 7.06563 16.4092 6.73744 16.7374C6.40925 17.0656 5.96413 17.25 5.5 17.25C5.03587 17.25 4.59075 17.0656 4.26256 16.7374C3.93437 16.4092 3.75 15.9641 3.75 15.5C3.75 15.0359 3.93437 14.5908 4.26256 14.2626C4.59075 13.9344 5.03587 13.75 5.5 13.75Z" fill="white"/>
</svg>
