<svg width="169" height="169" viewBox="0 0 169 169" fill="none" xmlns="http://www.w3.org/2000/svg">
<path fill-rule="evenodd" clip-rule="evenodd" d="M84.5 169C106.911 169 128.404 160.097 144.251 144.251C160.097 128.404 169 106.911 169 84.5C169 62.0892 160.097 40.5963 144.251 24.7495C128.404 8.90265 106.911 0 84.5 0C62.0892 0 40.5963 8.90265 24.7495 24.7495C8.90265 40.5963 0 62.0892 0 84.5C0 106.911 8.90265 128.404 24.7495 144.251C40.5963 160.097 62.0892 169 84.5 169ZM72.1871 119.145H63.6164L36.2143 91.7429L44.785 83.1721L67.9621 106.349L118.662 55.5286L127.233 64.0993L72.1871 119.145Z" fill="#00CA54"/>
</svg>
