<svg width="24" height="21" viewBox="0 0 24 21" fill="none" xmlns="http://www.w3.org/2000/svg">
<path d="M11.6713 0.5C11.2338 0.5 10.8007 0.586167 10.3965 0.753582C9.9923 0.920997 9.62506 1.16638 9.31572 1.47572C9.00638 1.78507 8.76099 2.15231 8.59358 2.55648C8.42616 2.96066 8.33999 3.39385 8.33999 3.83133C8.33999 4.26881 8.42616 4.702 8.59358 5.10617C8.76099 5.51035 9.00638 5.87759 9.31572 6.18693C9.62506 6.49628 9.9923 6.74166 10.3965 6.90908C10.8007 7.07649 11.2338 7.16266 11.6713 7.16266C12.5548 7.16266 13.4022 6.81168 14.0269 6.18693C14.6517 5.56219 15.0027 4.71485 15.0027 3.83133C15.0027 2.94781 14.6517 2.10047 14.0269 1.47572C13.4022 0.850978 12.5548 0.5 11.6713 0.5ZM19.1743 2.164C18.511 2.164 17.8749 2.42749 17.4058 2.89652C16.9368 3.36555 16.6733 4.00169 16.6733 4.66499C16.6733 5.3283 16.9368 5.96444 17.4058 6.43347C17.8749 6.9025 18.511 7.16599 19.1743 7.16599C19.8376 7.16599 20.4738 6.9025 20.9428 6.43347C21.4118 5.96444 21.6753 5.3283 21.6753 4.66499C21.6753 4.00169 21.4118 3.36555 20.9428 2.89652C20.4738 2.42749 19.8376 2.164 19.1743 2.164ZM4.16833 2.164C3.50502 2.164 2.86889 2.42749 2.39986 2.89652C1.93083 3.36555 1.66733 4.00169 1.66733 4.66499C1.66733 5.3283 1.93083 5.96444 2.39986 6.43347C2.86889 6.9025 3.50502 7.16599 4.16833 7.16599C4.83164 7.16599 5.46777 6.9025 5.9368 6.43347C6.40583 5.96444 6.66933 5.3283 6.66933 4.66499C6.66933 4.00169 6.40583 3.36555 5.9368 2.89652C5.46777 2.42749 4.83164 2.164 4.16833 2.164ZM6.66933 10.489C6.67241 10.0488 6.84943 9.62771 7.16179 9.31754C7.47414 9.00738 7.89647 8.83331 8.33666 8.83332H15.006C15.4482 8.83332 15.8723 9.00899 16.185 9.32168C16.4977 9.63436 16.6733 10.0585 16.6733 10.5007V15.5027C16.6738 16.0274 16.5916 16.549 16.4299 17.0483C16.0607 18.1799 15.3002 19.1428 14.2849 19.7642C13.2696 20.3855 12.0661 20.6246 10.8904 20.4384C9.71472 20.2522 8.64392 19.653 7.87028 18.7484C7.09664 17.8438 6.67083 16.693 6.66933 15.5027V10.489ZM5.002 10.5007C5.002 9.89208 5.16373 9.32352 5.44884 8.83332H1.66733C1.22513 8.83332 0.801036 9.00899 0.48835 9.32168C0.175665 9.63436 2.30781e-07 10.0585 2.30781e-07 10.5007V14.669C-0.000226837 15.3514 0.16711 16.0235 0.487316 16.6262C0.807522 17.2288 1.2708 17.7437 1.83647 18.1254C2.40214 18.5072 3.05289 18.7443 3.73158 18.8158C4.41027 18.8873 5.09614 18.791 5.72895 18.5355C5.25008 17.5957 5.00095 16.5558 5.002 15.501V10.5007ZM18.3407 10.5007V15.5027C18.3407 16.5948 18.0789 17.6252 17.6137 18.5355C18.2465 18.791 18.9324 18.8873 19.6111 18.8158C20.2898 18.7443 20.9405 18.5072 21.5062 18.1254C22.0718 17.7437 22.5351 17.2288 22.8553 16.6262C23.1755 16.0235 23.3429 15.3514 23.3426 14.669V10.5007C23.3426 10.0585 23.167 9.63436 22.8543 9.32168C22.5416 9.00899 22.1175 8.83332 21.6753 8.83332H17.8938C18.1773 9.32352 18.3407 9.89208 18.3407 10.5007Z" fill="white"/>
</svg>
