<svg width="97" height="97" viewBox="0 0 97 97" fill="none" xmlns="http://www.w3.org/2000/svg">
<rect width="97" height="97" rx="48.5" fill="#0F52BA"/>
<path d="M47.7591 29C46.906 29 46.0613 29.168 45.2731 29.4945C44.485 29.8209 43.7689 30.2994 43.1656 30.9027C42.5624 31.5059 42.0839 32.222 41.7575 33.0101C41.431 33.7983 41.263 34.643 41.263 35.4961C41.263 36.3492 41.431 37.1939 41.7575 37.982C42.0839 38.7702 42.5624 39.4863 43.1656 40.0895C43.7689 40.6927 44.485 41.1712 45.2731 41.4977C46.0613 41.8242 46.906 41.9922 47.7591 41.9922C49.482 41.9922 51.1343 41.3078 52.3525 40.0895C53.5708 38.8713 54.2552 37.219 54.2552 35.4961C54.2552 33.7732 53.5708 32.1209 52.3525 30.9027C51.1343 29.6844 49.482 29 47.7591 29ZM62.3899 32.2448C61.0965 32.2448 59.856 32.7586 58.9414 33.6732C58.0268 34.5878 57.513 35.8283 57.513 37.1217C57.513 38.4152 58.0268 39.6557 58.9414 40.5703C59.856 41.4849 61.0965 41.9987 62.3899 41.9987C63.6834 41.9987 64.9238 41.4849 65.8384 40.5703C66.753 39.6557 67.2669 38.4152 67.2669 37.1217C67.2669 35.8283 66.753 34.5878 65.8384 33.6732C64.9238 32.7586 63.6834 32.2448 62.3899 32.2448ZM33.1282 32.2448C31.8348 32.2448 30.5943 32.7586 29.6797 33.6732C28.7651 34.5878 28.2513 35.8283 28.2513 37.1217C28.2513 38.4152 28.7651 39.6557 29.6797 40.5703C30.5943 41.4849 31.8348 41.9987 33.1282 41.9987C34.4217 41.9987 35.6622 41.4849 36.5768 40.5703C37.4914 39.6557 38.0052 38.4152 38.0052 37.1217C38.0052 35.8283 37.4914 34.5878 36.5768 33.6732C35.6622 32.7586 34.4217 32.2448 33.1282 32.2448ZM38.0052 48.4785C38.0112 47.6202 38.3564 46.799 38.9655 46.1942C39.5746 45.5894 40.3981 45.25 41.2565 45.25H54.2617C55.124 45.25 55.951 45.5925 56.5607 46.2023C57.1704 46.812 57.513 47.639 57.513 48.5013V58.2552C57.5138 59.2785 57.3536 60.2956 57.0383 61.2691C56.3184 63.4758 54.8353 65.3535 52.8555 66.5652C50.8757 67.7768 48.5288 68.2429 46.2363 67.8799C43.9437 67.5169 41.8556 66.3484 40.347 64.5844C38.8384 62.8204 38.0081 60.5763 38.0052 58.2552V48.4785ZM34.7539 48.5013C34.7539 47.3146 35.0693 46.2059 35.6252 45.25H28.2513C27.389 45.25 26.562 45.5925 25.9523 46.2023C25.3425 46.812 25 47.639 25 48.5013V56.6295C24.9996 57.9603 25.3259 59.2708 25.9503 60.446C26.5747 61.6212 27.4781 62.6251 28.5811 63.3696C29.6842 64.114 30.9531 64.5763 32.2766 64.7157C33.6 64.8552 34.9375 64.6675 36.1715 64.1693C35.2377 62.3367 34.7518 60.3087 34.7539 58.2519V48.5013ZM60.7643 48.5013V58.2552C60.7643 60.3848 60.2538 62.3941 59.3467 64.1693C60.5807 64.6675 61.9181 64.8552 63.2416 64.7157C64.565 64.5763 65.834 64.114 66.937 63.3696C68.0401 62.6251 68.9435 61.6212 69.5679 60.446C70.1923 59.2708 70.5186 57.9603 70.5182 56.6295V48.5013C70.5182 47.639 70.1756 46.812 69.5659 46.2023C68.9561 45.5925 68.1292 45.25 67.2669 45.25H59.8929C60.4456 46.2059 60.7643 47.3146 60.7643 48.5013Z" fill="white"/>
</svg>
